<?xml version="1.0" encoding="UTF-8" standalone="no"?>
<!-- Created with Inkscape (http://www.inkscape.org/) -->

<svg
   xmlns:dc="http://purl.org/dc/elements/1.1/"
   xmlns:cc="http://creativecommons.org/ns#"
   xmlns:rdf="http://www.w3.org/1999/02/22-rdf-syntax-ns#"
   xmlns:svg="http://www.w3.org/2000/svg"
   xmlns="http://www.w3.org/2000/svg"
   xmlns:sodipodi="http://sodipodi.sourceforge.net/DTD/sodipodi-0.dtd"
   xmlns:inkscape="http://www.inkscape.org/namespaces/inkscape"
   id="svg2"
   version="1.1"
   inkscape:version="0.91 r13725"
   xml:space="preserve"
   width="220"
   height="210"
   viewBox="0 0 219.99999 210"
   sodipodi:docname="KAUST-logo-seed.svg"><metadata
     id="metadata8"><rdf:RDF><cc:Work
         rdf:about=""><dc:format>image/svg+xml</dc:format><dc:type
           rdf:resource="http://purl.org/dc/dcmitype/StillImage" /><dc:title></dc:title></cc:Work></rdf:RDF></metadata><defs
     id="defs6"><clipPath
       clipPathUnits="userSpaceOnUse"
       id="clipPath16"><path
         d="m 0,595.28 841.89,0 L 841.89,0 0,0 0,595.28 Z"
         id="path18"
         inkscape:connector-curvature="0" /></clipPath></defs><sodipodi:namedview
     pagecolor="#ffffff"
     bordercolor="#666666"
     borderopacity="1"
     objecttolerance="10"
     gridtolerance="10"
     guidetolerance="10"
     inkscape:pageopacity="0"
     inkscape:pageshadow="2"
     inkscape:window-width="1417"
     inkscape:window-height="1167"
     id="namedview4"
     showgrid="false"
     fit-margin-top="2.98369"
     fit-margin-left="2.98369"
     fit-margin-right="2.98369"
     fit-margin-bottom="2.98369"
     inkscape:zoom="0.5"
     inkscape:cx="118.68351"
     inkscape:cy="83.74518"
     inkscape:window-x="982"
     inkscape:window-y="267"
     inkscape:window-maximized="0"
     inkscape:current-layer="g10" /><g
     id="g10"
     inkscape:groupmode="layer"
     inkscape:label="color-seed-logo"
     transform="matrix(1.25,0,0,-1.25,-416.60393,475.27857)"><g
       id="g12"
       transform="translate(-1.2103516e-5,-0.776794)"><g
         id="g14"
         clip-path="url(#clipPath16)"><g
           id="g20"
           transform="translate(448.5605,280.3145)"><path
             d="m 0,0 c 2.545,3.511 3.828,8.044 3.828,13.612 0,3.366 -0.474,6.304 -1.279,8.915 C -0.33,19.759 -2.195,16.353 -2.195,12.199 -2.195,8.823 -1.488,4.477 0,0"
             style="fill:#f48412;fill-opacity:1;fill-rule:nonzero;stroke:none"
             id="path22"
             inkscape:connector-curvature="0" /></g><g
           id="g24"
           transform="translate(480.7402,312.5039)"><path
             d="m 0,0 c 0.895,-4.892 1.324,-9.846 1.324,-14.657 0,-18.189 -3.543,-31.214 -8.957,-40.528 0.912,-0.094 1.834,-0.167 2.795,-0.167 25.469,0 30.994,23.7 30.994,34.001 C 26.156,-4.856 9.283,-0.434 0,0"
             style="fill:#f48412;fill-opacity:1;fill-rule:nonzero;stroke:none"
             id="path26"
             inkscape:connector-curvature="0" /></g><g
           id="g28"
           transform="translate(455.125,293.9268)"><path
             d="m 0,0 c 0,-6.914 -1.932,-12.372 -5.5,-16.486 0.975,-2.379 2.164,-4.749 3.604,-6.985 4.99,5.742 7.539,13.992 7.539,24.775 0,4.529 -0.752,8.742 -2.084,12.61 -1.901,-0.895 -3.707,-1.91 -5.313,-3.09 C -0.672,7.703 0,4.162 0,0"
             style="fill:#f48412;fill-opacity:1;fill-rule:nonzero;stroke:none"
             id="path30"
             inkscape:connector-curvature="0" /></g><g
           id="g32"
           transform="translate(463.959,295.2305)"><path
             d="m 0,0 c 0,-13.027 -3.531,-21.711 -8.84,-27.453 1.342,-1.722 2.867,-3.3 4.549,-4.703 5.623,7.059 9.353,17.656 9.353,33.467 0,4.842 -0.644,9.676 -1.886,14.304 C 1.342,15.141 -0.5,14.56 -2.311,13.871 -0.83,9.619 0,4.986 0,0"
             style="fill:#f48412;fill-opacity:1;fill-rule:nonzero;stroke:none"
             id="path34"
             inkscape:connector-curvature="0" /></g><g
           id="g36"
           transform="translate(473.0449,296.5415)"><path
             d="m 0,0 c 0,-16.911 -4.123,-28.227 -10.096,-35.805 1.682,-1.016 3.506,-1.842 5.477,-2.446 5.527,8.838 9.058,21.533 9.058,39.557 C 4.439,3.85 4.23,9.354 2.988,15.851 1.422,15.717 -0.271,15.489 -2.057,15.162 -0.707,10.204 0,5.066 0,0"
             style="fill:#f48412;fill-opacity:1;fill-rule:nonzero;stroke:none"
             id="path38"
             inkscape:connector-curvature="0" /></g><g
           id="g40"
           transform="translate(422.1357,334.7798)"><path
             d="m 0,0 c 14.12,0 25.776,-5.365 33.173,-14.317 1.564,2.102 2.834,4.347 3.892,6.577 -6.714,8.411 -16.99,14.045 -31.204,14.045 -7.471,0 -21.314,-1.803 -33.516,-6.43 0.21,-1.484 0.697,-2.947 1.44,-4.382 C -17.559,-1.386 -7.816,0 0,0"
             style="fill:#edac09;fill-opacity:1;fill-rule:nonzero;stroke:none"
             id="path42"
             inkscape:connector-curvature="0" /></g><g
           id="g44"
           transform="translate(462.9668,345.5645)"><path
             d="m 0,0 c -0.984,12.788 -7.727,33.825 -31.232,33.825 -18.175,0 -29.129,-17.156 -34.146,-30.167 13.834,4.337 28.044,6.076 36.302,6.076 C -16.754,9.734 -7.242,5.965 0,0"
             style="fill:#edac09;fill-opacity:1;fill-rule:nonzero;stroke:none"
             id="path46"
             inkscape:connector-curvature="0" /></g><g
           id="g48"
           transform="translate(401.8184,323.1191)"><path
             d="m 0,0 c 4.283,0.983 9.134,1.511 14.473,1.511 7.946,0 23.048,-1.404 31.894,-11.026 1.863,1.234 3.531,2.682 4.998,4.288 C 44.564,3.318 33.633,8.468 20.317,8.468 13.011,8.468 3.898,7.234 -4.19,4.462 -3.032,2.911 -1.623,1.417 0,0"
             style="fill:#edac09;fill-opacity:1;fill-rule:nonzero;stroke:none"
             id="path50"
             inkscape:connector-curvature="0" /></g><g
           id="g52"
           transform="translate(445.6367,312.1421)"><path
             d="m 0,0 c -8.259,8.491 -22.044,9.76 -29.345,9.76 -4.261,0 -8.164,-0.362 -11.701,-1.01 9.013,-6.648 21.944,-11.201 30.319,-11.201 4.096,0 7.651,0.926 10.727,2.451"
             style="fill:#edac09;fill-opacity:1;fill-rule:nonzero;stroke:none"
             id="path54"
             inkscape:connector-curvature="0" /></g><g
           id="g56"
           transform="translate(427.9971,345.1084)"><path
             d="m 0,0 c 14.653,0 25.491,-5.678 32.878,-14.111 1.215,3.353 1.877,6.403 2.119,8.567 C 28.558,0.984 19.304,5.611 5.894,5.611 c -8.278,0 -23.792,-1.998 -38.141,-6.943 -0.523,-1.793 -0.89,-3.372 -1.122,-4.713 C -21.52,-1.771 -8.513,0 0,0"
             style="fill:#edac09;fill-opacity:1;fill-rule:nonzero;stroke:none"
             id="path58"
             inkscape:connector-curvature="0" /></g><g
           id="g60"
           transform="translate(366.728,309.6333)"><path
             d="m 0,0 c 0,10.62 6.778,18.382 16.087,23.917 -1.358,0.899 -2.799,1.624 -4.265,2.128 C 3.063,20.34 -3.049,12.771 -3.049,2.938 c 0,-8.737 3.227,-19.997 9.04,-31.044 0.97,0.08 1.896,0.259 2.763,0.544 C 3.166,-17.768 0,-7.744 0,0"
             style="fill:#b9d110;fill-opacity:1;fill-rule:nonzero;stroke:none"
             id="path62"
             inkscape:connector-curvature="0" /></g><g
           id="g64"
           transform="translate(374.3198,306.6958)"><path
             d="m 0,0 c 0,9.188 5.929,15.766 14.12,20.25 -0.683,1.449 -1.466,2.755 -2.406,3.824 C 2.933,19.204 -3.568,12.363 -3.568,2.938 c 0,-7.248 2.951,-16.63 8.173,-25.791 0.858,0.632 1.664,1.332 2.397,2.155 C 2.526,-13.324 0,-5.83 0,0"
             style="fill:#b9d110;fill-opacity:1;fill-rule:nonzero;stroke:none"
             id="path66"
             inkscape:connector-curvature="0" /></g><g
           id="g68"
           transform="translate(372.4331,336.9346)"><path
             d="m 0,0 c -1.171,0.107 -2.281,0.152 -3.269,0.152 -10.659,0 -33.494,-8.803 -33.494,-25.043 0,-17.412 19.351,-28.169 31.951,-30.247 -5.49,11.021 -8.521,22.074 -8.521,30.775 0,10.19 5.356,18.185 13.333,24.363"
             style="fill:#b9d110;fill-opacity:1;fill-rule:nonzero;stroke:none"
             id="path70"
             inkscape:connector-curvature="0" /></g><g
           id="g72"
           transform="translate(381.5542,303.7578)"><path
             d="M 0,0 C 0,6.108 3.193,11.161 8.835,14.773 8.71,16.808 8.428,18.637 7.968,20.255 0.939,16.302 -4.042,10.66 -4.042,2.938 c 0,-5.12 2.066,-11.612 5.8,-18.096 0.728,1.127 1.367,2.353 1.963,3.623 C 1.333,-7.368 0,-3.309 0,0"
             style="fill:#b9d110;fill-opacity:1;fill-rule:nonzero;stroke:none"
             id="path74"
             inkscape:connector-curvature="0" /></g><g
           id="g76"
           transform="translate(384.291,303.7578)"><path
             d="M 0,0 C 0,-2.45 0.822,-5.361 2.293,-8.396 5.07,-0.89 6.018,7.606 6.201,11.536 2.222,8.523 0,4.61 0,0"
             style="fill:#b9d110;fill-opacity:1;fill-rule:nonzero;stroke:none"
             id="path78"
             inkscape:connector-curvature="0" /></g><g
           id="g80"
           transform="translate(425.0596,268.7041)"><path
             d="m 0,0 c -12.608,0 -23.345,5.533 -31.003,12.618 -1.427,-0.574 -2.826,-1.203 -4.208,-1.889 8.809,-10.295 21.779,-18.715 37.241,-18.715 7.471,0 13.682,1.328 18.682,3.917 C 19.71,-1.346 18.376,1.032 16.776,3.09 12.265,1.09 6.716,0 0,0"
             style="fill:#21b5b0;fill-opacity:1;fill-rule:nonzero;stroke:none"
             id="path82"
             inkscape:connector-curvature="0" /></g><g
           id="g84"
           transform="translate(375.1162,269.0928)"><path
             d="m 0,0 c -5.384,-5.37 -8.872,-11.528 -8.872,-17.572 0,-23.61 36.759,-36.911 50.995,-36.911 16.861,0 24.757,10.69 28.173,22.026 -5.102,-1.274 -10.059,-1.699 -14.365,-1.699 C 32.394,-34.156 12.779,-18.543 0,0"
             style="fill:#21b5b0;fill-opacity:1;fill-rule:nonzero;stroke:none"
             id="path86"
             inkscape:connector-curvature="0" /></g><g
           id="g88"
           transform="translate(411.5166,285.041)"><path
             d="m 0,0 c -4.74,0 -9.761,-0.996 -14.679,-2.683 7.118,-6.179 16.847,-10.926 28.222,-10.926 5.97,0 10.875,0.902 14.899,2.54 C 19.534,-1.819 5.486,0 0,0"
             style="fill:#21b5b0;fill-opacity:1;fill-rule:nonzero;stroke:none"
             id="path90"
             inkscape:connector-curvature="0" /></g><g
           id="g92"
           transform="translate(427.0898,257.5254)"><path
             d="m 0,0 c -16.669,0 -30.624,9.237 -40.005,20.445 -1.068,-0.597 -2.133,-1.2 -3.157,-1.864 10.365,-14.093 26.18,-25.918 45.156,-25.918 6.135,0 12.658,0.956 18.627,3.631 -0.049,2.825 -0.398,5.387 -0.975,7.73 C 13.512,1.011 6.52,0 0,0"
             style="fill:#21b5b0;fill-opacity:1;fill-rule:nonzero;stroke:none"
             id="path94"
             inkscape:connector-curvature="0" /></g><g
           id="g96"
           transform="translate(429.084,246.1641)"><path
             d="m 0,0 c -20.326,0 -37.259,12.676 -48.334,27.762 -0.818,-0.609 -1.574,-1.247 -2.343,-1.887 11.956,-17.617 30.44,-32.523 52.64,-32.523 5.101,0 10.432,0.612 15.592,2.173 0.517,2.69 0.84,5.319 0.988,7.779 C 12.072,0.755 5.428,0 0,0"
             style="fill:#21b5b0;fill-opacity:1;fill-rule:nonzero;stroke:none"
             id="path98"
             inkscape:connector-curvature="0" /></g></g></g></g></svg>