<?xml version="1.0" encoding="UTF-8" standalone="no"?>
<!-- Created with Inkscape (http://www.inkscape.org/) -->

<svg
   xmlns:dc="http://purl.org/dc/elements/1.1/"
   xmlns:cc="http://creativecommons.org/ns#"
   xmlns:rdf="http://www.w3.org/1999/02/22-rdf-syntax-ns#"
   xmlns:svg="http://www.w3.org/2000/svg"
   xmlns="http://www.w3.org/2000/svg"
   xmlns:sodipodi="http://sodipodi.sourceforge.net/DTD/sodipodi-0.dtd"
   xmlns:inkscape="http://www.inkscape.org/namespaces/inkscape"
   id="svg2"
   version="1.1"
   inkscape:version="0.91 r13725"
   xml:space="preserve"
   width="538.54877"
   height="183.54875"
   viewBox="0 0 538.54877 183.54875"
   sodipodi:docname="KAUST new logo edits horizontal-color.pdf"><metadata
     id="metadata8"><rdf:RDF><cc:Work
         rdf:about=""><dc:format>image/svg+xml</dc:format><dc:type
           rdf:resource="http://purl.org/dc/dcmitype/StillImage" /><dc:title></dc:title></cc:Work></rdf:RDF></metadata><defs
     id="defs6"><clipPath
       clipPathUnits="userSpaceOnUse"
       id="clipPath16"><path
         d="m 0,146.839 430.839,0 L 430.839,0 0,0 0,146.839 Z"
         id="path18"
         inkscape:connector-curvature="0" /></clipPath></defs><sodipodi:namedview
     pagecolor="#ffffff"
     bordercolor="#666666"
     borderopacity="1"
     objecttolerance="10"
     gridtolerance="10"
     guidetolerance="10"
     inkscape:pageopacity="0"
     inkscape:pageshadow="2"
     inkscape:window-width="1192"
     inkscape:window-height="706"
     id="namedview4"
     showgrid="false"
     inkscape:zoom="0.85043366"
     inkscape:cx="269.27438"
     inkscape:cy="91.774376"
     inkscape:window-x="722"
     inkscape:window-y="165"
     inkscape:window-maximized="0"
     inkscape:current-layer="g10" /><g
     id="g10"
     inkscape:groupmode="layer"
     inkscape:label="KAUST new logo edits horizontal-color"
     transform="matrix(1.25,0,0,-1.25,0,183.54875)"><g
       id="g12"><g
         id="g14"
         clip-path="url(#clipPath16)"><g
           id="g20"
           transform="translate(318.3939,105.2757)"><path
             d="M 0,0 C 1.092,0.427 1.857,0.466 2.919,0.123 L 3.794,1.199 C 1.702,1.226 1.026,2.205 1.514,2.898 1.987,3.574 2.833,3.095 3.464,2.663 L 4.338,3.736 C 3.249,4.475 2.126,4.564 1.078,3.26 0.717,2.804 0.508,1.83 1.134,1.26 0.48,1.11 -0.092,0.694 -0.388,0.411 L 0,0 Z"
             style="fill:#645951;fill-opacity:1;fill-rule:nonzero;stroke:none"
             id="path22"
             inkscape:connector-curvature="0" /></g><g
           id="g24"
           transform="translate(353.2455,109.7167)"><path
             d="m 0,0 0,-11.63 c 1,0 1.657,0.811 1.657,2.288 L 1.657,0 0,0 Z"
             style="fill:#645951;fill-opacity:1;fill-rule:nonzero;stroke:none"
             id="path26"
             inkscape:connector-curvature="0" /></g><g
           id="g28"
           transform="translate(343.5238,93.4491)"><path
             d="m 0,0 0,-11.636 c 0.992,0 1.657,0.815 1.657,2.291 L 1.657,0 0,0 Z"
             style="fill:#645951;fill-opacity:1;fill-rule:nonzero;stroke:none"
             id="path30"
             inkscape:connector-curvature="0" /></g><g
           id="g32"
           transform="translate(342.7152,103.6)"><path
             d="m 0,0 0,-2.707 c -1.548,0.202 -2.626,0.644 -3.308,1.409 0.192,0.596 0.313,1.026 0.522,1.647 0.38,1.112 0.853,2.157 1.794,1.908 C -0.304,2.084 0,1.118 0,0 m -14.99,-2.885 c 0.301,-0.833 1.05,-1.306 1.977,-1.306 l 4.179,0 0,1.306 c 0.296,-0.833 1.052,-1.306 1.974,-1.306 l 0.956,0 c 0.696,0 1.092,0.123 1.447,0.408 0.307,0.243 0.689,0.982 0.846,1.576 -0.157,-1.34 2.375,-1.838 3.867,-1.984 1.336,-0.137 1.406,0.74 1.406,1.306 0.302,-0.833 1.056,-1.306 1.977,-1.306 l 4.119,0 0,10.308 -1.66,0 0,-9.002 -2.673,0 c -1.142,0 -1.755,0.701 -1.755,1.843 0,2.092 -0.458,4.035 -2.374,4.035 -3.048,0 -3.501,-3.428 -4.53,-5.106 -0.289,-0.471 -0.532,-0.772 -1.312,-0.772 l -0.534,0 c -1.139,0 -1.754,0.701 -1.754,1.843 l 0,7.159 -1.66,0 0,-9.002 -2.744,0 c -1.134,0 -1.752,0.701 -1.752,1.843 l 0,7.159 -1.655,0 0,-9.002 -8.271,0 c -2.435,0 -2.045,1.969 -0.864,3.328 l -0.416,0.395 c -1.82,-1.492 -2.854,-3.545 -1.335,-4.655 0.347,-0.257 0.724,-0.374 1.518,-0.374 l 11.023,0 0,1.306 z"
             style="fill:#645951;fill-opacity:1;fill-rule:nonzero;stroke:none"
             id="path34"
             inkscape:connector-curvature="0" /></g><g
           id="g36"
           transform="translate(278.224,109.7167)"><path
             d="m 0,0 0,-11.63 c 0.995,0 1.66,0.811 1.66,2.288 L 1.66,0 0,0 Z"
             style="fill:#645951;fill-opacity:1;fill-rule:nonzero;stroke:none"
             id="path38"
             inkscape:connector-curvature="0" /></g><g
           id="g40"
           transform="translate(401.8851,93.4491)"><path
             d="m 0,0 0,-9.004 -2.736,0 c -1.144,0 -1.762,0.704 -1.762,1.843 l 0,7.161 -1.652,0 0,-9.004 -4.414,0 c 1,0.94 2.327,3.278 1.311,4.422 -0.916,1.034 -2.542,1.029 -3.64,1.134 l -1.716,-2.527 c 1.591,-0.743 2.168,-1.579 2.675,-3.029 l -5.566,0 c -1.142,0 -1.755,0.704 -1.755,1.843 l 0,7.161 -1.654,0 0,-9.004 -2.713,0 0,0.672 c 0,2.718 -1.754,4.973 -4.205,3.143 -1.684,-1.26 -2.773,-3.637 -1.257,-4.75 0.354,-0.259 0.729,-0.374 1.524,-0.374 l 1.972,0 c -0.377,-2.158 -0.878,-4.164 -3.82,-5.564 l 0.162,-0.495 c 2.503,0.749 4.847,1.82 5.446,6.059 l 4.545,0 0,1.309 c 0.304,-0.83 1.053,-1.309 1.983,-1.309 l 4.105,0 c 0.801,0 1.296,0.125 1.623,0.458 0.293,-0.319 0.822,-0.458 1.621,-0.458 l 5.425,0 0,1.55 c 0.008,-0.524 0.246,-0.925 0.595,-1.176 0.35,-0.259 0.727,-0.374 1.526,-0.374 l 4.032,0 L 1.655,0 0,0 Z m -12.819,-5.983 0.804,1.187 c 2.27,-0.221 1.911,-2.087 0.822,-3.276 -0.225,0.845 -0.977,1.796 -1.626,2.089 m -12.602,-3.014 c -0.282,0 -0.84,-0.007 -1.045,-0.007 -2.445,0 -2.149,2.361 -0.777,3.422 1.213,0.945 1.838,-0.574 1.838,-2.535 l -0.016,-0.88 z"
             style="fill:#645951;fill-opacity:1;fill-rule:nonzero;stroke:none"
             id="path42"
             inkscape:connector-curvature="0" /></g><g
           id="g44"
           transform="translate(353.6019,85.1175)"><path
             d="m 0,0 c 0.021,2.705 -1.757,4.975 -4.21,3.14 -1.682,-1.255 -2.77,-3.635 -1.26,-4.747 0.357,-0.26 0.728,-0.375 1.53,-0.375 l 1.968,0 c -0.377,-2.155 -0.88,-4.16 -3.817,-5.566 l 0.162,-0.487 c 2.501,0.741 4.836,1.922 5.443,6.053 C -0.079,-1.275 -0.008,-0.633 0,0 m -1.81,-0.665 c -0.277,0 -0.832,-0.008 -1.039,-0.008 -2.443,0 -2.149,2.362 -0.78,3.417 1.215,0.945 1.843,-0.568 1.843,-2.532 L -1.81,-0.665 Z"
             style="fill:#645951;fill-opacity:1;fill-rule:nonzero;stroke:none"
             id="path46"
             inkscape:connector-curvature="0" /></g><g
           id="g48"
           transform="translate(263.1302,100.7225)"><path
             d="m 0,0 c -0.283,0 -0.836,-0.008 -1.045,-0.008 -2.44,0 -2.149,2.367 -0.777,3.423 1.209,0.942 1.843,-0.571 1.843,-2.533 L 0,0 Z m 6.166,-1.314 0,1.306 C 6.472,-0.84 7.221,-1.314 8.148,-1.314 l 4.173,0 0,10.308 -1.657,0 0,-9.002 -2.739,0 c -1.144,0 -1.759,0.702 -1.759,1.843 l 0,7.159 -1.649,0 0,-9.002 -2.716,0 0,0.673 c 0,2.718 -1.751,4.975 -4.207,3.137 -1.682,-1.254 -2.771,-3.632 -1.26,-4.742 0.357,-0.262 0.731,-0.374 1.529,-0.374 l 8.303,0 z"
             style="fill:#645951;fill-opacity:1;fill-rule:nonzero;stroke:none"
             id="path50"
             inkscape:connector-curvature="0" /></g><g
           id="g52"
           transform="translate(384.1205,106.5902)"><path
             d="m 0,0 c -3.053,0 -3.503,-3.422 -4.529,-5.105 -0.288,-0.469 -0.537,-0.773 -1.318,-0.773 l -3.356,0 c 1,0.94 2.327,3.283 1.316,4.419 -0.921,1.043 -2.545,1.035 -3.641,1.14 l -1.715,-2.527 c 1.589,-0.746 2.162,-1.584 2.668,-3.032 l -5.559,0 0,0.67 c 0,2.726 -1.752,4.98 -4.208,3.145 -1.683,-1.257 -2.772,-3.634 -1.259,-4.747 0.351,-0.259 0.733,-0.369 1.529,-0.369 l 8.271,0 c 0.796,0 1.296,0.125 1.621,0.455 0.288,-0.317 0.82,-0.455 1.62,-0.455 l 3.355,0 c 0.696,0 1.089,0.12 1.445,0.406 0.306,0.248 0.689,0.981 0.846,1.576 -0.157,-1.344 2.38,-1.83 3.864,-1.982 1.335,-0.139 1.411,0.736 1.411,1.301 l 0.008,1.843 C 2.369,-1.94 1.916,0 0,0 m -17.941,-5.873 c -0.28,0 -0.83,-0.005 -1.039,-0.005 -2.446,0 -2.15,2.364 -0.781,3.427 1.213,0.94 1.844,-0.57 1.844,-2.537 l -0.024,-0.885 z m 6.486,3.022 0.808,1.178 c 2.266,-0.215 1.905,-2.081 0.818,-3.27 -0.226,0.848 -0.977,1.796 -1.626,2.092 M 0.701,-5.697 c -1.553,0.198 -2.628,0.646 -3.311,1.405 0.199,0.6 0.311,1.032 0.518,1.653 0.382,1.113 0.863,2.155 1.804,1.901 0.683,-0.168 0.989,-1.134 0.989,-2.252 l 0,-2.707 z"
             style="fill:#645951;fill-opacity:1;fill-rule:nonzero;stroke:none"
             id="path54"
             inkscape:connector-curvature="0" /></g><g
           id="g56"
           transform="translate(305.0589,100.7147)"><path
             d="m 0,0 c -2.05,0 -2.814,1.464 -2.856,2.959 -0.05,1.723 1.652,2.286 4.231,1.537 L 1.553,4.988 C 0.615,5.352 -0.333,5.742 -1.33,5.742 -3.621,5.742 -4.71,4.614 -4.71,2.77 -4.71,1.503 -4.255,0.571 -3.403,0 L -7.03,0 c -1.139,0 -1.754,0.702 -1.754,1.841 l 0,1.649 -1.652,0 0,-3.49 -3.656,0 c -1.138,0 -1.754,0.702 -1.754,1.841 l 0,3.836 -1.657,0 0,-5.677 -2.987,0 c -0.825,0 -0.747,0.487 -0.422,0.94 l -0.442,0.301 c -1.056,-1.123 -0.854,-2.547 1.031,-2.547 l 4.477,0 0,1.306 c 0.304,-0.835 1.053,-1.306 1.982,-1.306 l 5.08,0 0,1.306 c 0.301,-0.835 1.053,-1.306 1.981,-1.306 l 8.753,0 L 1.95,0 0,0 Z"
             style="fill:#645951;fill-opacity:1;fill-rule:nonzero;stroke:none"
             id="path58"
             inkscape:connector-curvature="0" /></g><g
           id="g60"
           transform="translate(400.5004,103.3988)"><path
             d="M 0,0 C -0.94,1.644 -2.045,2.833 -4.152,2.833 L -4.266,2.225 c 3.321,-0.573 1.692,-2.662 4.498,-4.911 l -9.105,0 0,9.009 -1.658,0 0,-8.025 c 0,-1.48 0.665,-2.286 1.658,-2.286 l 12.264,0 0,1.302 C 1.723,-2.208 0.935,-1.645 0,0"
             style="fill:#645951;fill-opacity:1;fill-rule:nonzero;stroke:none"
             id="path62"
             inkscape:connector-curvature="0" /></g><g
           id="g64"
           transform="translate(306.6507,84.4525)"><path
             d="m 0,0 c -0.277,0 -0.827,-0.008 -1.042,-0.008 -2.435,0 -2.147,2.362 -0.777,3.42 1.215,0.943 1.842,-0.571 1.842,-2.535 L 0,0 Z M 18.116,3.443 C 19.834,4.462 20.3,1.035 20.3,0 18.085,1.205 17.171,2.875 18.116,3.443 m -16.309,-3.451 0,0.673 C 1.807,3.38 0.055,5.64 -2.4,3.805 -4.082,2.548 -5.174,0.17 -3.663,-0.942 c 0.353,-0.26 0.73,-0.375 1.532,-0.375 l 8.656,0 0,1.309 c 0.303,-0.829 1.05,-1.309 1.977,-1.309 l 4.26,0 0,1.309 c 0.303,-0.829 1.05,-1.309 1.976,-1.309 l 5.355,0 c 1.291,0 1.411,0.744 1.411,1.309 0.301,-0.829 1.053,-1.309 1.975,-1.309 l 4.34,0 0,1.309 c 0.304,-0.829 1.045,-1.309 1.972,-1.309 l 4.113,0 0,10.311 -1.652,0 0,-9.002 -2.676,0 c -1.146,0 -1.757,0.705 -1.757,1.846 l 0,1.65 -1.66,0 0,-3.496 -2.901,0 c -1.136,0 -1.65,0.883 -1.78,1.768 -0.186,1.251 -0.746,3.225 -2.542,3.225 -1.022,0 -2.538,-0.662 -2.187,-2.372 0.238,-1.165 1.286,-2.039 2.187,-2.621 l -4.425,0 c -1.139,0 -1.749,0.705 -1.749,1.846 l 0,1.65 -1.655,0 0,-3.496 -2.828,0 c -1.139,0 -1.754,0.705 -1.754,1.846 l 0,1.65 -1.655,0 0,-3.496 -3.063,0 z"
             style="fill:#645951;fill-opacity:1;fill-rule:nonzero;stroke:none"
             id="path66"
             inkscape:connector-curvature="0" /></g><path
           d="m 294.283,96.353 1.628,0 0,1.492 -1.628,0 0,-1.492 z"
           style="fill:#645951;fill-opacity:1;fill-rule:nonzero;stroke:none"
           id="path68"
           inkscape:connector-curvature="0" /><path
           d="m 365.573,107.13 1.626,0 0,1.49 -1.626,0 0,-1.49 z"
           style="fill:#645951;fill-opacity:1;fill-rule:nonzero;stroke:none"
           id="path70"
           inkscape:connector-curvature="0" /><path
           d="m 363.078,107.13 1.631,0 0,1.49 -1.631,0 0,-1.49 z"
           style="fill:#645951;fill-opacity:1;fill-rule:nonzero;stroke:none"
           id="path72"
           inkscape:connector-curvature="0" /><path
           d="m 306.038,90.868 1.631,0 0,1.484 -1.631,0 0,-1.484 z"
           style="fill:#645951;fill-opacity:1;fill-rule:nonzero;stroke:none"
           id="path74"
           inkscape:connector-curvature="0" /><path
           d="m 317.768,89.367 1.637,0 0,1.495 -1.637,0 0,-1.495 z"
           style="fill:#645951;fill-opacity:1;fill-rule:nonzero;stroke:none"
           id="path76"
           inkscape:connector-curvature="0" /><path
           d="m 303.543,90.868 1.628,0 0,1.484 -1.628,0 0,-1.484 z"
           style="fill:#645951;fill-opacity:1;fill-rule:nonzero;stroke:none"
           id="path78"
           inkscape:connector-curvature="0" /><path
           d="m 325.822,90.868 1.629,0 0,1.484 -1.629,0 0,-1.484 z"
           style="fill:#645951;fill-opacity:1;fill-rule:nonzero;stroke:none"
           id="path80"
           inkscape:connector-curvature="0" /><path
           d="m 323.331,90.868 1.634,0 0,1.484 -1.634,0 0,-1.484 z"
           style="fill:#645951;fill-opacity:1;fill-rule:nonzero;stroke:none"
           id="path82"
           inkscape:connector-curvature="0" /><path
           d="m 334.079,89.367 1.629,0 0,1.495 -1.629,0 0,-1.495 z"
           style="fill:#645951;fill-opacity:1;fill-rule:nonzero;stroke:none"
           id="path84"
           inkscape:connector-curvature="0" /><path
           d="m 331.59,89.367 1.631,0 0,1.495 -1.631,0 0,-1.495 z"
           style="fill:#645951;fill-opacity:1;fill-rule:nonzero;stroke:none"
           id="path86"
           inkscape:connector-curvature="0" /><path
           d="m 312.767,80.064 1.631,0 0,1.487 -1.631,0 0,-1.487 z"
           style="fill:#645951;fill-opacity:1;fill-rule:nonzero;stroke:none"
           id="path88"
           inkscape:connector-curvature="0" /><path
           d="m 310.275,80.064 1.636,0 0,1.487 -1.636,0 0,-1.487 z"
           style="fill:#645951;fill-opacity:1;fill-rule:nonzero;stroke:none"
           id="path90"
           inkscape:connector-curvature="0" /><path
           d="m 397.882,96.353 1.636,0 0,1.492 -1.636,0 0,-1.492 z"
           style="fill:#645951;fill-opacity:1;fill-rule:nonzero;stroke:none"
           id="path92"
           inkscape:connector-curvature="0" /><g
           id="g94"
           transform="translate(367.1381,90.328)"><path
             d="M 0,0 C 1.917,0 2.367,-1.935 2.367,-4.032 L 2.359,-5.878 c 0,-0.563 -0.17,-1.822 -1.409,-1.307 -1.471,0.616 -3.542,1.731 -4.459,1.126 -0.607,-0.408 -0.525,-1.028 -0.525,-2.343 l 0,-3.144 c 0,-1.477 -0.671,-2.284 -1.66,-2.284 l 0,6.368 c 0,1.492 0.547,2.205 1.235,2.666 0.034,0.021 0.073,0.042 0.107,0.065 C -3.472,-2.956 -2.802,0 0,0 m 0.699,-5.697 0,2.712 c 0,1.113 -0.303,2.077 -0.987,2.26 -0.947,0.241 -1.424,-0.804 -1.799,-1.917 -0.196,-0.539 -0.444,-1.356 -0.634,-1.948 1.059,-0.167 2.313,-0.649 3.42,-1.107"
             style="fill:#645951;fill-opacity:1;fill-rule:nonzero;stroke:none"
             id="path96"
             inkscape:connector-curvature="0" /></g><g
           id="g98"
           transform="translate(25.9798,58.6288)"><path
             d="m 0,0 1.437,0 0,-3.985 0.021,0 L 4.417,0 5.862,0 2.689,-4.116 l 3.527,-4.899 -1.71,0 -3.048,4.37 -0.021,0 0,-4.37 L 0,-9.015 0,0 Z"
             style="fill:#645951;fill-opacity:1;fill-rule:nonzero;stroke:none"
             id="path100"
             inkscape:connector-curvature="0" /></g><path
           d="m 33.274,57.314 1.42,0 0,1.314 -1.42,0 0,-1.314 z m 0.048,-7.705 1.319,0 0,6.231 -1.319,0 0,-6.231 z"
           style="fill:#645951;fill-opacity:1;fill-rule:nonzero;stroke:none"
           id="path102"
           inkscape:connector-curvature="0" /><g
           id="g104"
           transform="translate(36.7435,55.8324)"><path
             d="m 0,0 1.319,0 0,-1.472 0.024,0 c 0.213,0.44 0.812,1.611 2.181,1.611 1.097,0 1.571,-0.909 1.571,-1.809 l 0,-4.546 -1.322,0 0,3.886 c 0,0.788 -0.118,1.492 -0.786,1.492 -1.298,0 -1.668,-2.037 -1.668,-2.809 l 0,-2.569 L 0,-6.216 0,0 Z"
             style="fill:#645951;fill-opacity:1;fill-rule:nonzero;stroke:none"
             id="path106"
             inkscape:connector-curvature="0" /></g><g
           id="g108"
           transform="translate(46.1088,50.3734)"><path
             d="M 0,0 C 1.149,0 1.26,1.319 1.26,2.346 1.26,3.377 1.1,4.765 0,4.765 -1.058,4.765 -1.257,3.422 -1.257,2.417 -1.257,1.356 -1.047,0 0,0 m 2.608,-0.579 c 0,-1.746 -0.571,-3.115 -3.066,-3.115 -0.799,0 -1.316,0.125 -1.785,0.246 l 0,1.293 c 0.41,-0.257 1.148,-0.762 1.992,-0.762 1.388,0 1.545,0.964 1.545,2.338 l 0,0.689 -0.029,0 c -0.181,-0.309 -0.547,-0.869 -1.616,-0.869 -1.646,0 -2.337,1.34 -2.337,3.176 0,1.759 0.544,3.184 2.337,3.184 1.019,0 1.451,-0.747 1.616,-1.166 l 0.029,0 0,1.029 1.314,0 0,-6.043 z"
             style="fill:#645951;fill-opacity:1;fill-rule:nonzero;stroke:none"
             id="path110"
             inkscape:connector-curvature="0" /></g><g
           id="g112"
           transform="translate(55.972,53.1512)"><path
             d="M 0,0 2.566,0 1.307,4.179 1.28,4.179 0,0 Z m 0.636,5.478 1.493,0 3.014,-9.013 -1.486,0 -0.821,2.681 -3.11,0 -0.821,-2.681 -1.274,0 3.005,9.013 z"
             style="fill:#645951;fill-opacity:1;fill-rule:nonzero;stroke:none"
             id="path114"
             inkscape:connector-curvature="0" /></g><g
           id="g116"
           transform="translate(64.8168,50.017)"><path
             d="M 0,0 C 1.068,0 1.332,1.414 1.332,2.671 1.332,3.768 1.081,5.2 0,5.2 -1.034,5.2 -1.283,3.857 -1.283,2.671 -1.283,1.105 -1.084,0.013 0,0 m -1.336,4.951 0.026,0 c 0.276,0.39 0.697,1.003 1.734,1.003 1.678,0 2.341,-1.409 2.341,-3.283 0,-2.286 -1.126,-3.226 -2.765,-3.226 -2.43,0 -2.655,1.631 -2.655,3.226 l 0,5.943 1.319,0 0,-3.663 z"
             style="fill:#645951;fill-opacity:1;fill-rule:nonzero;stroke:none"
             id="path118"
             inkscape:connector-curvature="0" /></g><g
           id="g120"
           transform="translate(71.4125,50.305)"><path
             d="M 0,0 C 1.084,0 1.232,1.388 1.232,2.409 1.232,3.498 1.131,4.912 0,4.912 -1.035,4.912 -1.257,3.498 -1.257,2.409 -1.257,1.388 -1.061,0 0,0 m 1.293,0.328 -0.031,0 C 1.084,-0.089 0.648,-0.84 -0.354,-0.84 c -1.786,0 -2.337,1.466 -2.337,3.249 0,1.872 0.693,3.257 2.337,3.257 1.055,0 1.438,-0.667 1.616,-1.003 l 0.031,0 0,3.663 1.319,0 0,-9.014 -1.319,0 0,1.016 z"
             style="fill:#645951;fill-opacity:1;fill-rule:nonzero;stroke:none"
             id="path122"
             inkscape:connector-curvature="0" /></g><g
           id="g124"
           transform="translate(79.7933,51.0907)"><path
             d="m 0,0 -0.018,0 c -0.212,-0.458 -0.796,-1.628 -2.176,-1.628 -1.097,0 -1.564,0.918 -1.564,1.827 l 0,4.543 1.315,0 0,-3.899 c 0,-0.778 0.123,-1.485 0.791,-1.485 1.298,0 1.67,2.043 1.67,2.81 l 0,2.574 1.317,0 0,-6.219 L 0,-1.477 0,0 Z"
             style="fill:#645951;fill-opacity:1;fill-rule:nonzero;stroke:none"
             id="path126"
             inkscape:connector-curvature="0" /></g><path
           d="m 83.221,49.609 1.316,0 0,9.02 -1.316,0 0,-9.02 z"
           style="fill:#645951;fill-opacity:1;fill-rule:nonzero;stroke:none"
           id="path128"
           inkscape:connector-curvature="0" /><path
           d="m 86.708,49.609 1.319,0 0,9.02 -1.319,0 0,-9.02 z"
           style="fill:#645951;fill-opacity:1;fill-rule:nonzero;stroke:none"
           id="path130"
           inkscape:connector-curvature="0" /><g
           id="g132"
           transform="translate(93.2015,52.5282)"><path
             d="m 0,0 c -0.553,-0.037 -2.037,-0.157 -2.037,-1.304 0,-0.568 0.324,-0.935 0.754,-0.935 0.456,0 1.283,0.45 1.283,1.506 L 0,0 Z m 0,-2.045 -0.031,0 c -0.205,-0.379 -0.755,-1.021 -1.752,-1.021 -0.975,0 -1.695,0.696 -1.695,1.561 0,1.924 2.651,2.007 3.478,2.049 l 0,0.553 c 0,0.678 0,1.804 -0.877,1.804 -0.814,0 -0.959,-0.631 -1.003,-1.364 l -1.386,0 c 0.067,0.929 0.43,1.909 2.389,1.909 2.023,0 2.193,-1.134 2.193,-2.349 l 0,-4.011 -1.316,0 0,0.869 z"
             style="fill:#645951;fill-opacity:1;fill-rule:nonzero;stroke:none"
             id="path134"
             inkscape:connector-curvature="0" /></g><g
           id="g136"
           transform="translate(96.5209,58.6288)"><path
             d="m 0,0 1.314,0 0,-4.27 0.033,0 c 0.206,0.445 0.811,1.615 2.183,1.615 1.094,0 1.563,-0.911 1.563,-1.812 l 0,-4.548 -1.317,0 0,3.889 c 0,0.788 -0.115,1.492 -0.783,1.492 -1.311,0 -1.679,-2.035 -1.679,-2.81 l 0,-2.571 L 0,-9.015 0,0 Z"
             style="fill:#645951;fill-opacity:1;fill-rule:nonzero;stroke:none"
             id="path138"
             inkscape:connector-curvature="0" /></g><g
           id="g140"
           transform="translate(113.4535,52.8133)"><path
             d="m 0,0 c 0,-1.646 -0.274,-3.349 -3.053,-3.349 -2.783,0 -3.058,1.703 -3.058,3.349 l 0,5.815 1.437,0 0,-5.815 c 0,-1.442 0.106,-2.566 1.621,-2.566 1.516,0 1.618,1.124 1.618,2.566 l 0,5.815 L 0,5.815 0,0 Z"
             style="fill:#645951;fill-opacity:1;fill-rule:nonzero;stroke:none"
             id="path142"
             inkscape:connector-curvature="0" /></g><g
           id="g144"
           transform="translate(115.4515,55.8324)"><path
             d="m 0,0 1.319,0 0,-1.472 0.032,0 c 0.202,0.44 0.809,1.611 2.181,1.611 1.097,0 1.569,-0.909 1.569,-1.809 l 0,-4.546 -1.323,0 0,3.886 c 0,0.788 -0.121,1.492 -0.788,1.492 -1.303,0 -1.671,-2.037 -1.671,-2.809 l 0,-2.569 L 0,-6.216 0,0 Z"
             style="fill:#645951;fill-opacity:1;fill-rule:nonzero;stroke:none"
             id="path146"
             inkscape:connector-curvature="0" /></g><path
           d="m 122.586,57.314 1.427,0 0,1.314 -1.427,0 0,-1.314 z m 0.047,-7.705 1.319,0 0,6.231 -1.319,0 0,-6.231 z"
           style="fill:#645951;fill-opacity:1;fill-rule:nonzero;stroke:none"
           id="path148"
           inkscape:connector-curvature="0" /><g
           id="g150"
           transform="translate(125.1439,55.8324)"><path
             d="m 0,0 1.398,0 1.606,-4.438 0.028,0 L 4.493,0 5.708,0 3.512,-6.216 2.367,-6.216 0,0 Z"
             style="fill:#645951;fill-opacity:1;fill-rule:nonzero;stroke:none"
             id="path152"
             inkscape:connector-curvature="0" /></g><g
           id="g154"
           transform="translate(135.2533,54.0311)"><path
             d="M 0,0 C 0,0.482 -0.173,1.398 -1.149,1.398 -2.165,1.398 -2.361,0.348 -2.391,0 L 0,0 Z m 1.179,-4.21 c -0.553,-0.22 -1.03,-0.359 -1.821,-0.359 -1.719,0 -3.102,1.027 -3.102,3.532 0,1.726 0.694,2.98 2.647,2.98 2.011,0 2.391,-1.346 2.391,-2.548 l -3.724,0 c 0,-1.225 0.555,-3.267 2.411,-3.267 0.412,0 0.807,0.081 1.198,0.267 l 0,-0.605 z"
             style="fill:#645951;fill-opacity:1;fill-rule:nonzero;stroke:none"
             id="path156"
             inkscape:connector-curvature="0" /></g><g
           id="g158"
           transform="translate(138.097,55.8324)"><path
             d="m 0,0 1.316,0 0,-1.582 0.03,0 c 0.419,0.828 0.882,1.637 2.015,1.721 l 0,-1.365 C 2.095,-1.27 1.316,-1.702 1.316,-3.372 l 0,-2.844 L 0,-6.216 0,0 Z"
             style="fill:#645951;fill-opacity:1;fill-rule:nonzero;stroke:none"
             id="path160"
             inkscape:connector-curvature="0" /></g><g
           id="g162"
           transform="translate(145.9095,54.6068)"><path
             d="m 0,0 c -0.434,0.294 -0.942,0.61 -1.573,0.61 -0.411,0 -0.877,-0.188 -0.877,-0.654 0,-1.121 2.843,-1.226 2.843,-3.207 0,-1.341 -1.042,-1.894 -2.365,-1.894 -0.796,0 -1.339,0.176 -1.657,0.278 l 0,1.22 c 0.375,-0.262 0.998,-0.655 1.723,-0.655 0.757,0 1.074,0.393 1.074,0.788 0,1.092 -2.805,1.312 -2.805,3.09 0,0.94 0.616,1.788 2.174,1.788 0.667,0 1.246,-0.177 1.463,-0.246 L 0,0 Z"
             style="fill:#645951;fill-opacity:1;fill-rule:nonzero;stroke:none"
             id="path164"
             inkscape:connector-curvature="0" /></g><path
           d="m 147.688,57.314 1.427,0 0,1.314 -1.427,0 0,-1.314 z m 0.054,-7.705 1.319,0 0,6.231 -1.319,0 0,-6.231 z"
           style="fill:#645951;fill-opacity:1;fill-rule:nonzero;stroke:none"
           id="path166"
           inkscape:connector-curvature="0" /><g
           id="g168"
           transform="translate(154.4349,49.5643)"><path
             d="m 0,0 c -0.265,-0.071 -0.615,-0.102 -0.916,-0.102 -1.244,0 -1.956,0.387 -1.956,1.586 l 0,4.106 -0.992,0 0,0.678 0.992,0 0,1.464 1.308,0.793 0,-2.257 1.71,0 0,-0.678 -1.71,0 0,-3.585 c 0,-0.913 0.103,-1.353 0.949,-1.353 0.209,0 0.431,0.023 0.615,0.097 L 0,0 Z"
             style="fill:#645951;fill-opacity:1;fill-rule:nonzero;stroke:none"
             id="path170"
             inkscape:connector-curvature="0" /></g><g
           id="g172"
           transform="translate(157.3099,49.5433)"><path
             d="m 0,0 -2.394,6.294 1.375,0 1.626,-4.445 0.035,0 1.458,4.445 1.246,0 -3.204,-9.017 -1.064,0 L 0,0 Z"
             style="fill:#645951;fill-opacity:1;fill-rule:nonzero;stroke:none"
             id="path174"
             inkscape:connector-curvature="0" /></g><g
           id="g176"
           transform="translate(166.4603,50.017)"><path
             d="M 0,0 C 1.184,0 1.325,1.563 1.325,2.697 1.325,3.839 1.184,5.412 0,5.412 -1.157,5.412 -1.304,3.839 -1.304,2.697 -1.304,1.563 -1.157,0 0,0 m -2.738,2.697 c 0,2.111 0.914,3.257 2.738,3.257 1.83,0 2.755,-1.146 2.755,-3.257 0,-2.1 -0.925,-3.252 -2.755,-3.252 -1.824,0 -2.738,1.152 -2.738,3.252"
             style="fill:#645951;fill-opacity:1;fill-rule:nonzero;stroke:none"
             id="path178"
             inkscape:connector-curvature="0" /></g><g
           id="g180"
           transform="translate(171.2543,55.1542)"><path
             d="m 0,0 -1.078,0 0,0.684 1.078,0 0,0.578 c 0,1.15 0.278,2.357 2.367,2.357 0.539,0 1.008,-0.077 1.317,-0.144 l 0,-0.904 C 3.415,2.692 3.059,2.856 2.527,2.856 1.453,2.856 1.328,2.089 1.328,1.424 l 0,-0.74 1.759,0 0,-0.684 -1.759,0 0,-5.54 L 0,-5.54 0,0 Z"
             style="fill:#645951;fill-opacity:1;fill-rule:nonzero;stroke:none"
             id="path182"
             inkscape:connector-curvature="0" /></g><g
           id="g184"
           transform="translate(31.0091,41.7777)"><path
             d="m 0,0 c -0.329,0.178 -1.257,0.61 -2.238,0.61 -0.796,0 -1.354,-0.45 -1.354,-1.136 0,-1.896 4.247,-1.849 4.247,-4.666 0,-1.893 -1.466,-2.634 -3.278,-2.634 -1.022,0 -2.017,0.23 -2.294,0.338 l 0,1.384 c 0.408,-0.222 1.451,-0.782 2.512,-0.782 0.941,0 1.623,0.39 1.623,1.304 0,2.063 -4.247,1.932 -4.247,4.739 0,1.458 1.084,2.309 2.942,2.309 0.846,0 1.732,-0.165 2.087,-0.23 L 0,0 Z"
             style="fill:#645951;fill-opacity:1;fill-rule:nonzero;stroke:none"
             id="path186"
             inkscape:connector-curvature="0" /></g><g
           id="g188"
           transform="translate(37.3851,34.2606)"><path
             d="m 0,0 c -0.537,-0.197 -1.1,-0.309 -1.665,-0.309 -1.967,0 -3.118,1.181 -3.118,3.498 0,1.859 0.847,3.006 2.638,3.006 1.673,0 2.234,-0.891 2.234,-2.168 l -1.383,0 c 0,0.743 -0.081,1.618 -0.905,1.618 -0.754,0 -1.145,-0.891 -1.145,-2.011 0,-1.516 0.637,-3.252 2.231,-3.252 0.38,0 0.741,0.089 1.113,0.23 L 0,0 Z"
             style="fill:#645951;fill-opacity:1;fill-rule:nonzero;stroke:none"
             id="path190"
             inkscape:connector-curvature="0" /></g><path
           d="m 38.728,41.788 1.425,0 0,1.317 -1.425,0 0,-1.317 z m 0.063,-7.698 1.316,0 0,6.227 -1.316,0 0,-6.227 z"
           style="fill:#645951;fill-opacity:1;fill-rule:nonzero;stroke:none"
           id="path192"
           inkscape:connector-curvature="0" /><g
           id="g194"
           transform="translate(45.4935,38.5101)"><path
             d="M 0,0 C 0,0.479 -0.173,1.396 -1.143,1.396 -2.168,1.396 -2.364,0.353 -2.39,0 L 0,0 Z m 1.184,-4.205 c -0.558,-0.223 -1.036,-0.354 -1.826,-0.354 -1.722,0 -3.105,1.019 -3.105,3.527 0,1.721 0.697,2.98 2.65,2.98 2.011,0 2.391,-1.348 2.391,-2.55 l -3.721,0 c 0,-1.226 0.545,-3.268 2.416,-3.268 0.402,0 0.791,0.078 1.195,0.262 l 0,-0.597 z"
             style="fill:#645951;fill-opacity:1;fill-rule:nonzero;stroke:none"
             id="path196"
             inkscape:connector-curvature="0" /></g><g
           id="g198"
           transform="translate(48.3422,40.3168)"><path
             d="m 0,0 1.322,0 0,-1.477 0.027,0 c 0.202,0.448 0.803,1.618 2.18,1.618 1.1,0 1.569,-0.921 1.569,-1.822 l 0,-4.543 -1.325,0 0,3.891 c 0,0.785 -0.118,1.492 -0.777,1.492 -1.313,0 -1.674,-2.034 -1.674,-2.807 l 0,-2.576 L 0,-6.224 0,0 Z"
             style="fill:#645951;fill-opacity:1;fill-rule:nonzero;stroke:none"
             id="path200"
             inkscape:connector-curvature="0" /></g><g
           id="g202"
           transform="translate(59.7845,34.2606)"><path
             d="m 0,0 c -0.532,-0.197 -1.1,-0.309 -1.657,-0.309 -1.972,0 -3.127,1.181 -3.127,3.498 0,1.859 0.848,3.006 2.642,3.006 1.676,0 2.228,-0.891 2.228,-2.168 l -1.374,0 c 0,0.743 -0.082,1.618 -0.903,1.618 -0.757,0 -1.158,-0.891 -1.158,-2.011 0,-1.516 0.644,-3.252 2.242,-3.252 0.377,0 0.743,0.089 1.107,0.23 L 0,0 Z"
             style="fill:#645951;fill-opacity:1;fill-rule:nonzero;stroke:none"
             id="path204"
             inkscape:connector-curvature="0" /></g><g
           id="g206"
           transform="translate(64.4056,38.5101)"><path
             d="M 0,0 C 0,0.479 -0.168,1.396 -1.145,1.396 -2.16,1.396 -2.364,0.353 -2.386,0 L 0,0 Z m 1.179,-4.205 c -0.551,-0.223 -1.033,-0.354 -1.818,-0.354 -1.725,0 -3.108,1.019 -3.108,3.527 0,1.721 0.694,2.98 2.652,2.98 2.014,0 2.394,-1.348 2.394,-2.55 l -3.726,0 c 0,-1.226 0.552,-3.268 2.419,-3.268 0.405,0 0.79,0.078 1.187,0.262 l 0,-0.597 z"
             style="fill:#645951;fill-opacity:1;fill-rule:nonzero;stroke:none"
             id="path208"
             inkscape:connector-curvature="0" /></g><g
           id="g210"
           transform="translate(74.0463,37.0043)"><path
             d="m 0,0 c -0.545,-0.042 -2.037,-0.154 -2.037,-1.307 0,-0.565 0.335,-0.923 0.764,-0.923 0.454,0 1.273,0.442 1.273,1.497 L 0,0 Z m 0,-2.055 -0.024,0 c -0.206,-0.362 -0.754,-0.998 -1.751,-0.998 -0.98,0 -1.697,0.689 -1.697,1.553 0,1.917 2.653,2.016 3.472,2.047 l 0,0.55 c 0,0.678 0,1.804 -0.872,1.804 -0.812,0 -0.956,-0.626 -1.014,-1.364 l -1.377,0 c 0.061,0.935 0.435,1.914 2.391,1.914 2.021,0 2.197,-1.134 2.197,-2.354 l 0,-4.006 -1.325,0 0,0.854 z"
             style="fill:#645951;fill-opacity:1;fill-rule:nonzero;stroke:none"
             id="path212"
             inkscape:connector-curvature="0" /></g><g
           id="g214"
           transform="translate(77.3685,40.3168)"><path
             d="m 0,0 1.314,0 0,-1.477 0.035,0 c 0.207,0.448 0.808,1.618 2.185,1.618 1.093,0 1.564,-0.921 1.564,-1.822 l 0,-4.543 -1.325,0 0,3.891 c 0,0.785 -0.113,1.492 -0.778,1.492 -1.308,0 -1.681,-2.034 -1.681,-2.807 l 0,-2.576 L 0,-6.224 0,0 Z"
             style="fill:#645951;fill-opacity:1;fill-rule:nonzero;stroke:none"
             id="path216"
             inkscape:connector-curvature="0" /></g><g
           id="g218"
           transform="translate(86.7396,34.7816)"><path
             d="M 0,0 C 1.087,0 1.241,1.39 1.241,2.422 1.241,3.506 1.139,4.915 0,4.915 -1.029,4.915 -1.255,3.506 -1.255,2.422 -1.255,1.39 -1.061,0 0,0 m 1.288,0.33 -0.021,0 c -0.18,-0.419 -0.61,-1.16 -1.623,-1.16 -1.784,0 -2.333,1.461 -2.333,3.252 0,1.864 0.691,3.252 2.333,3.252 1.063,0 1.443,-0.668 1.623,-1.009 l 0.021,0 0,3.658 1.322,0 0,-9.009 -1.322,0 0,1.016 z"
             style="fill:#645951;fill-opacity:1;fill-rule:nonzero;stroke:none"
             id="path220"
             inkscape:connector-curvature="0" /></g><g
           id="g222"
           transform="translate(96.3041,42.246)"><path
             d="m 0,0 -2.189,0 0,0.859 5.799,0 L 3.61,0 1.44,0 1.44,-8.15 0,-8.15 0,0 Z"
             style="fill:#645951;fill-opacity:1;fill-rule:nonzero;stroke:none"
             id="path224"
             inkscape:connector-curvature="0" /></g><g
           id="g226"
           transform="translate(103.7709,38.5101)"><path
             d="M 0,0 C 0,0.479 -0.164,1.396 -1.144,1.396 -2.162,1.396 -2.357,0.353 -2.385,0 L 0,0 Z m 1.176,-4.205 c -0.544,-0.223 -1.034,-0.354 -1.815,-0.354 -1.718,0 -3.102,1.019 -3.102,3.527 0,1.721 0.691,2.98 2.649,2.98 2.009,0 2.394,-1.348 2.394,-2.55 l -3.721,0 c 0,-1.226 0.539,-3.268 2.406,-3.268 0.408,0 0.801,0.078 1.189,0.262 l 0,-0.597 z"
             style="fill:#645951;fill-opacity:1;fill-rule:nonzero;stroke:none"
             id="path228"
             inkscape:connector-curvature="0" /></g><g
           id="g230"
           transform="translate(110.9457,34.2606)"><path
             d="m 0,0 c -0.534,-0.197 -1.092,-0.309 -1.657,-0.309 -1.975,0 -3.124,1.181 -3.124,3.498 0,1.859 0.848,3.006 2.639,3.006 1.675,0 2.234,-0.891 2.234,-2.168 l -1.386,0 c 0,0.743 -0.076,1.618 -0.897,1.618 -0.763,0 -1.156,-0.891 -1.156,-2.011 0,-1.516 0.645,-3.252 2.237,-3.252 0.377,0 0.743,0.089 1.11,0.23 L 0,0 Z"
             style="fill:#645951;fill-opacity:1;fill-rule:nonzero;stroke:none"
             id="path232"
             inkscape:connector-curvature="0" /></g><g
           id="g234"
           transform="translate(112.2777,43.1048)"><path
             d="m 0,0 1.314,0 0,-4.268 0.032,0 c 0.207,0.451 0.804,1.619 2.184,1.619 1.089,0 1.568,-0.922 1.568,-1.82 l 0,-4.543 -1.322,0 0,3.891 c 0,0.785 -0.121,1.487 -0.783,1.487 -1.304,0 -1.679,-2.029 -1.679,-2.804 l 0,-2.574 L 0,-9.012 0,0 Z"
             style="fill:#645951;fill-opacity:1;fill-rule:nonzero;stroke:none"
             id="path236"
             inkscape:connector-curvature="0" /></g><g
           id="g238"
           transform="translate(119.3949,40.3168)"><path
             d="m 0,0 1.319,0 0,-1.477 0.029,0 c 0.21,0.448 0.809,1.618 2.183,1.618 1.092,0 1.567,-0.921 1.567,-1.822 l 0,-4.543 -1.323,0 0,3.891 c 0,0.785 -0.115,1.492 -0.78,1.492 -1.306,0 -1.676,-2.034 -1.676,-2.807 l 0,-2.576 L 0,-6.224 0,0 Z"
             style="fill:#645951;fill-opacity:1;fill-rule:nonzero;stroke:none"
             id="path240"
             inkscape:connector-curvature="0" /></g><g
           id="g242"
           transform="translate(128.8129,34.4935)"><path
             d="M 0,0 C 1.178,0 1.314,1.571 1.314,2.71 1.314,3.849 1.178,5.412 0,5.412 -1.168,5.412 -1.31,3.849 -1.31,2.71 -1.31,1.571 -1.168,0 0,0 m -2.739,2.71 c 0,2.102 0.906,3.252 2.739,3.252 1.827,0 2.754,-1.15 2.754,-3.252 0,-2.11 -0.927,-3.252 -2.754,-3.252 -1.833,0 -2.739,1.142 -2.739,3.252"
             style="fill:#645951;fill-opacity:1;fill-rule:nonzero;stroke:none"
             id="path244"
             inkscape:connector-curvature="0" /></g><path
           d="m 133.216,34.09 1.32,0 0,9.015 -1.32,0 0,-9.015 z"
           style="fill:#645951;fill-opacity:1;fill-rule:nonzero;stroke:none"
           id="path246"
           inkscape:connector-curvature="0" /><g
           id="g248"
           transform="translate(138.9369,34.4935)"><path
             d="M 0,0 C 1.176,0 1.325,1.571 1.325,2.71 1.325,3.849 1.176,5.412 0,5.412 -1.157,5.412 -1.309,3.849 -1.309,2.71 -1.309,1.571 -1.157,0 0,0 m -2.735,2.71 c 0,2.102 0.911,3.252 2.735,3.252 1.833,0 2.76,-1.15 2.76,-3.252 0,-2.11 -0.927,-3.252 -2.76,-3.252 -1.824,0 -2.735,1.142 -2.735,3.252"
             style="fill:#645951;fill-opacity:1;fill-rule:nonzero;stroke:none"
             id="path250"
             inkscape:connector-curvature="0" /></g><g
           id="g252"
           transform="translate(145.5199,34.8495)"><path
             d="M 0,0 C 1.142,0 1.249,1.322 1.249,2.354 1.249,3.383 1.103,4.77 0,4.77 -1.061,4.77 -1.257,3.425 -1.257,2.422 -1.257,1.362 -1.042,0 0,0 m 2.607,-0.576 c 0,-1.746 -0.568,-3.118 -3.063,-3.118 -0.801,0 -1.322,0.13 -1.791,0.246 l 0,1.296 c 0.414,-0.251 1.147,-0.76 1.995,-0.76 1.391,0 1.543,0.969 1.543,2.336 l 0,0.676 -0.019,0 c -0.183,-0.291 -0.547,-0.854 -1.626,-0.854 -1.647,0 -2.332,1.343 -2.332,3.176 0,1.76 0.544,3.184 2.332,3.184 1.021,0 1.457,-0.749 1.626,-1.163 l 0.019,0 0,1.019 1.316,0 0,-6.038 z"
             style="fill:#645951;fill-opacity:1;fill-rule:nonzero;stroke:none"
             id="path254"
             inkscape:connector-curvature="0" /></g><g
           id="g256"
           transform="translate(151.6048,34.0326)"><path
             d="m 0,0 -2.391,6.279 1.374,0 1.626,-4.441 0.035,0 1.459,4.441 1.24,0 -3.195,-9.015 -1.054,0 L 0,0 Z"
             style="fill:#645951;fill-opacity:1;fill-rule:nonzero;stroke:none"
             id="path258"
             inkscape:connector-curvature="0" /></g><g
           id="g260"
           transform="translate(235.889,64.9676)"><path
             d="m 0,0 c 1.406,1.94 2.113,4.446 2.113,7.522 0,1.856 -0.261,3.485 -0.704,4.923 C -0.186,10.918 -1.212,9.036 -1.212,6.739 -1.212,4.873 -0.824,2.472 0,0"
             style="fill:#f08414;fill-opacity:1;fill-rule:nonzero;stroke:none"
             id="path262"
             inkscape:connector-curvature="0" /></g><g
           id="g264"
           transform="translate(253.6722,82.7587)"><path
             d="m 0,0 c 0.498,-2.707 0.73,-5.443 0.73,-8.104 0,-10.054 -1.957,-17.251 -4.945,-22.399 0.503,-0.052 1.011,-0.094 1.545,-0.094 14.073,0 17.129,13.099 17.129,18.794 C 14.459,-2.686 5.13,-0.241 0,0"
             style="fill:#f08414;fill-opacity:1;fill-rule:nonzero;stroke:none"
             id="path266"
             inkscape:connector-curvature="0" /></g><g
           id="g268"
           transform="translate(239.516,72.4896)"><path
             d="m 0,0 c 0,-3.822 -1.066,-6.841 -3.037,-9.111 0.534,-1.317 1.193,-2.626 1.992,-3.86 C 1.712,-9.8 3.118,-5.239 3.118,0.72 3.118,3.223 2.707,5.551 1.969,7.687 0.916,7.198 -0.081,6.635 -0.967,5.978 -0.372,4.255 0,2.299 0,0"
             style="fill:#f08414;fill-opacity:1;fill-rule:nonzero;stroke:none"
             id="path270"
             inkscape:connector-curvature="0" /></g><g
           id="g272"
           transform="translate(244.3988,73.2098)"><path
             d="m 0,0 c 0,-7.2 -1.95,-12 -4.889,-15.173 0.746,-0.953 1.587,-1.825 2.517,-2.6 3.107,3.899 5.174,9.758 5.174,18.498 0,2.673 -0.362,5.349 -1.045,7.903 C 0.743,8.365 -0.275,8.046 -1.28,7.666 -0.458,5.315 0,2.754 0,0"
             style="fill:#f08414;fill-opacity:1;fill-rule:nonzero;stroke:none"
             id="path274"
             inkscape:connector-curvature="0" /></g><g
           id="g276"
           transform="translate(249.4232,73.9325)"><path
             d="m 0,0 c 0,-9.347 -2.278,-15.6 -5.579,-19.789 0.927,-0.56 1.937,-1.021 3.023,-1.356 3.056,4.891 5.007,11.908 5.007,21.868 0,1.406 -0.115,4.445 -0.802,8.038 C 0.78,8.685 -0.154,8.562 -1.139,8.378 -0.39,5.643 0,2.802 0,0"
             style="fill:#f08414;fill-opacity:1;fill-rule:nonzero;stroke:none"
             id="path278"
             inkscape:connector-curvature="0" /></g><g
           id="g280"
           transform="translate(221.2816,95.0672)"><path
             d="m 0,0 c 7.803,0 14.249,-2.964 18.336,-7.915 0.864,1.168 1.568,2.406 2.152,3.639 -3.713,4.648 -9.388,7.761 -17.249,7.761 -4.129,0 -11.777,-0.995 -18.524,-3.55 0.118,-0.823 0.387,-1.632 0.796,-2.422 C -9.703,-0.765 -4.317,0 0,0"
             style="fill:#ecb10e;fill-opacity:1;fill-rule:nonzero;stroke:none"
             id="path282"
             inkscape:connector-curvature="0" /></g><g
           id="g284"
           transform="translate(243.849,101.0262)"><path
             d="m 0,0 c -0.539,7.072 -4.268,18.695 -17.26,18.695 -10.046,0 -16.102,-9.479 -18.872,-16.671 7.648,2.396 15.5,3.357 20.064,3.357 C -9.258,5.381 -3.998,3.296 0,0"
             style="fill:#ecb10e;fill-opacity:1;fill-rule:nonzero;stroke:none"
             id="path286"
             inkscape:connector-curvature="0" /></g><g
           id="g288"
           transform="translate(210.0492,88.621)"><path
             d="m 0,0 c 2.375,0.55 5.057,0.84 8.005,0.84 4.388,0 12.737,-0.78 17.626,-6.095 1.031,0.678 1.953,1.48 2.765,2.37 C 24.639,1.838 18.593,4.682 11.232,4.682 7.195,4.682 2.16,4.003 -2.311,2.469 -1.667,1.61 -0.893,0.786 0,0"
             style="fill:#ecb10e;fill-opacity:1;fill-rule:nonzero;stroke:none"
             id="path290"
             inkscape:connector-curvature="0" /></g><g
           id="g292"
           transform="translate(234.2767,82.5546)"><path
             d="m 0,0 c -4.569,4.694 -12.189,5.393 -16.223,5.393 -2.356,0 -4.511,-0.196 -6.469,-0.557 4.987,-3.673 12.129,-6.187 16.758,-6.187 2.266,0 4.229,0.508 5.934,1.351"
             style="fill:#ecb10e;fill-opacity:1;fill-rule:nonzero;stroke:none"
             id="path294"
             inkscape:connector-curvature="0" /></g><g
           id="g296"
           transform="translate(224.5209,100.7777)"><path
             d="m 0,0 c 8.104,0 14.089,-3.142 18.176,-7.797 0.668,1.848 1.037,3.534 1.171,4.731 C 15.783,0.539 10.669,3.1 3.26,3.1 -1.314,3.1 -9.892,1.995 -17.82,-0.736 -18.108,-1.726 -18.312,-2.603 -18.443,-3.344 -11.895,-0.98 -4.702,0 0,0"
             style="fill:#ecb10e;fill-opacity:1;fill-rule:nonzero;stroke:none"
             id="path298"
             inkscape:connector-curvature="0" /></g><g
           id="g300"
           transform="translate(190.6586,81.1722)"><path
             d="M 0,0 C 0,5.867 3.747,10.156 8.892,13.214 8.143,13.712 7.347,14.112 6.535,14.393 1.694,11.24 -1.684,7.056 -1.684,1.621 c 0,-4.829 1.784,-11.055 4.997,-17.158 0.539,0.044 1.049,0.144 1.529,0.301 C 1.752,-9.824 0,-4.286 0,0"
             style="fill:#c1d115;fill-opacity:1;fill-rule:nonzero;stroke:none"
             id="path302"
             inkscape:connector-curvature="0" /></g><g
           id="g304"
           transform="translate(194.8529,79.5463)"><path
             d="M 0,0 C 0,5.074 3.281,8.713 7.806,11.19 7.431,11.992 6.996,12.717 6.477,13.303 1.624,10.612 -1.969,6.828 -1.969,1.626 c 0,-4.009 1.634,-9.193 4.52,-14.257 0.469,0.349 0.919,0.738 1.324,1.191 C 1.401,-7.363 0,-3.223 0,0"
             style="fill:#c1d115;fill-opacity:1;fill-rule:nonzero;stroke:none"
             id="path306"
             inkscape:connector-curvature="0" /></g><g
           id="g308"
           transform="translate(193.8168,96.2587)"><path
             d="m 0,0 c -0.65,0.058 -1.265,0.086 -1.81,0.086 -5.888,0 -18.513,-4.864 -18.513,-13.842 0,-9.623 10.698,-15.572 17.657,-16.718 -3.029,6.093 -4.707,12.201 -4.707,17.011 0,5.631 2.964,10.051 7.373,13.463"
             style="fill:#c1d115;fill-opacity:1;fill-rule:nonzero;stroke:none"
             id="path310"
             inkscape:connector-curvature="0" /></g><g
           id="g312"
           transform="translate(198.8568,77.9227)"><path
             d="M 0,0 C 0,3.375 1.762,6.171 4.88,8.169 4.812,9.29 4.657,10.3 4.403,11.193 0.516,9.007 -2.239,5.891 -2.239,1.624 c 0,-2.831 1.144,-6.418 3.21,-10.002 0.398,0.62 0.755,1.298 1.082,2.003 C 0.732,-4.071 0,-1.825 0,0"
             style="fill:#c1d115;fill-opacity:1;fill-rule:nonzero;stroke:none"
             id="path314"
             inkscape:connector-curvature="0" /></g><g
           id="g316"
           transform="translate(200.3646,77.9227)"><path
             d="M 0,0 C 0,-1.356 0.461,-2.961 1.27,-4.642 2.807,-0.492 3.33,4.205 3.428,6.373 1.233,4.713 0,2.548 0,0"
             style="fill:#c1d115;fill-opacity:1;fill-rule:nonzero;stroke:none"
             id="path318"
             inkscape:connector-curvature="0" /></g><g
           id="g320"
           transform="translate(222.8978,58.5477)"><path
             d="M 0,0 C -6.965,0 -12.9,3.061 -17.137,6.972 -17.925,6.658 -18.694,6.31 -19.462,5.933 -14.589,0.241 -7.421,-4.414 1.123,-4.414 c 4.132,0 7.566,0.735 10.326,2.167 -0.553,1.503 -1.291,2.82 -2.176,3.954 C 6.781,0.605 3.715,0 0,0"
             style="fill:#3daaaa;fill-opacity:1;fill-rule:nonzero;stroke:none"
             id="path322"
             inkscape:connector-curvature="0" /></g><g
           id="g324"
           transform="translate(195.2982,58.7621)"><path
             d="m 0,0 c -2.977,-2.964 -4.906,-6.37 -4.906,-9.711 0,-13.05 20.317,-20.399 28.185,-20.399 9.316,0 13.683,5.907 15.573,12.17 -2.819,-0.702 -5.566,-0.935 -7.943,-0.935 C 17.904,-18.875 7.061,-10.251 0,0"
             style="fill:#3daaaa;fill-opacity:1;fill-rule:nonzero;stroke:none"
             id="path326"
             inkscape:connector-curvature="0" /></g><g
           id="g328"
           transform="translate(215.4144,67.5804)"><path
             d="m 0,0 c -2.618,0 -5.398,-0.555 -8.111,-1.484 3.929,-3.417 9.307,-6.041 15.596,-6.041 3.297,0 6.007,0.503 8.235,1.404 C 10.798,-1.011 3.034,0 0,0"
             style="fill:#3daaaa;fill-opacity:1;fill-rule:nonzero;stroke:none"
             id="path330"
             inkscape:connector-curvature="0" /></g><g
           id="g332"
           transform="translate(224.0209,52.371)"><path
             d="m 0,0 c -9.211,0 -16.922,5.106 -22.108,11.298 -0.592,-0.327 -1.182,-0.665 -1.745,-1.027 5.727,-7.792 14.471,-14.329 24.957,-14.329 3.394,0 6.995,0.529 10.293,2.008 C 11.371,-0.487 11.18,0.927 10.86,2.218 7.467,0.558 3.602,0 0,0"
             style="fill:#3daaaa;fill-opacity:1;fill-rule:nonzero;stroke:none"
             id="path334"
             inkscape:connector-curvature="0" /></g><g
           id="g336"
           transform="translate(225.1234,46.0897)"><path
             d="m 0,0 c -11.232,0 -20.591,7.009 -26.717,15.34 -0.445,-0.332 -0.867,-0.685 -1.291,-1.036 6.604,-9.74 16.825,-17.977 29.097,-17.977 2.817,0 5.763,0.34 8.617,1.201 0.287,1.488 0.46,2.941 0.539,4.297 C 6.676,0.416 3.003,0 0,0"
             style="fill:#3daaaa;fill-opacity:1;fill-rule:nonzero;stroke:none"
             id="path338"
             inkscape:connector-curvature="0" /></g></g></g></g></svg>